<?xml version="1.0" encoding="UTF-8" standalone="no"?>
<svg xmlns="http://www.w3.org/2000/svg" width="128" height="128" viewBox="0 0 128 128">
  <!-- Rounded Square Background -->
  <rect x="8" y="8" width="112" height="112" rx="24" ry="24" fill="#606060" />
  
  <!-- Gear Icon -->
  <path fill="#2b3033" d="M64,28 L72,28 L74,38 C77,39 80,41 83,43 L92,39 L98,45 L94,54 C96,57 97,60 98,63 L108,65 L108,73 L98,75 C97,78 96,81 94,84 L98,93 L92,99 L83,95 C80,97 77,99 74,100 L72,110 L56,110 L54,100 C51,99 48,97 45,95 L36,99 L30,93 L34,84 C32,81 31,78 30,75 L20,73 L20,65 L30,63 C31,60 32,57 34,54 L30,45 L36,39 L45,43 C48,41 51,39 54,38 L56,28 Z" />
  <circle cx="64" cy="69" r="22" fill="#606060" />

  <!-- Broom Icon -->
  <g transform="translate(64,69) rotate(35)">
     <!-- Handle -->
     <rect x="-4" y="-55" width="8" height="52" rx="2" fill="#81d4fa" />
     
     <!-- Cap holding bristles -->
     <path d="M-7,0 L7,0 L9,6 L-9,6 Z" fill="#81d4fa" />
     <path d="M-9,6 L9,6" stroke="#606060" stroke-width="1" />

     <!-- Bristles with jagged bottom for texture -->
     <path d="M-9,6 L9,6 L16,32 L11,30 L6,33 L0,30 L-6,33 L-11,30 L-16,32 Z" fill="#81d4fa" />
     
     <!-- Detail lines to separate bristles -->
     <path d="M0,8 L0,28" stroke="#606060" stroke-width="2" stroke-linecap="round"/>
     <path d="M-5,8 L-7,28" stroke="#606060" stroke-width="2" stroke-linecap="round"/>
     <path d="M5,8 L7,28" stroke="#606060" stroke-width="2" stroke-linecap="round"/>
  </g>
</svg>
